<svg id="Laag_1" data-name="Laag 1" xmlns="http://www.w3.org/2000/svg" viewBox="0 0 1075.82 446.81"><defs><style>.cls-1{fill:#fff;}</style></defs><title>Blanko wit</title><path class="cls-1" d="M191,365.22a19.47,19.47,0,0,0-15.24,7.22h-.24V341.5H154.78v81.35h20.73V389.62a11.18,11.18,0,0,1,.46-3.32,7,7,0,0,1,6.77-4.47c5.15,0,7.33,4,7.33,10.66v30.36h20.74V390.2c0-15.93-7.1-25-19.82-25"/><path class="cls-1" d="M249.84,365.22c-20.74,0-29.22,16.95-29.22,30,0,17.87,11.24,28.87,31.06,28.87a58.21,58.21,0,0,0,21.09-3.55l-2.64-13.86a50,50,0,0,1-15.36,2.17c-7.33,0-13.75-2.52-14.43-7h34.71a36,36,0,0,0,.81-7.79c0-15.47-7.79-28.87-26-28.87M240.1,387.9c.35-3.55,2.64-9.16,8.71-9.16,6.54,0,8,6,8,9.16Z"/><path class="cls-1" d="M307.79,350.44l-20.17,5.49v10.55h-7V381.6h7v19.83c0,8.59,1.84,14.09,5.27,17.53,3,3,8,5.15,14.09,5.15,5.28,0,9.86-.68,12.27-1.6v-15.7a15.6,15.6,0,0,1-4.93.46c-5,0-6.53-2.75-6.53-9.51V381.6h11.68V366.48H307.79Z"/><path class="cls-1" d="M388.64,365.22c-7.22,0-12.83,2.75-16,7h-.24V341.5H351.74V405c0,7-.23,14.21-.45,17.88H368.7l.8-7.22h.23c3.78,6.3,10.08,8.47,16,8.47,13.06,0,25.89-10.19,25.89-30.59.12-17.3-9.74-28.3-23-28.3M380.73,408a8.45,8.45,0,0,1-8.13-6.76,19.74,19.74,0,0,1-.24-2.86v-7.57a21.12,21.12,0,0,1,.24-2.75,8.34,8.34,0,0,1,8.13-7c6.88,0,10,5.73,10,13.41,0,8.93-3.89,13.52-10,13.52"/><path class="cls-1" d="M448.41,365.22c-20.73,0-29.21,16.95-29.21,30,0,17.87,11.23,28.87,31.05,28.87a58.17,58.17,0,0,0,21.09-3.55L468.7,406.7a49.86,49.86,0,0,1-15.35,2.17c-7.34,0-13.76-2.52-14.44-7h34.72a36.13,36.13,0,0,0,.8-7.79c0-15.47-7.79-28.87-26-28.87m-9.73,22.68c.34-3.55,2.63-9.16,8.7-9.16,6.54,0,8,6,8,9.16Z"/><path class="cls-1" d="M521.26,372.55H521c-3-4.7-7.68-7.33-14.56-7.33-14.09,0-25.55,11.8-25.55,29.56,0,16.39,10,27.39,23.72,27.39,5.62,0,10.66-2.06,14.1-6.3H519v2.52c0,8.71-5.73,12.72-13.06,12.72A35.86,35.86,0,0,1,489.64,427l-3.9,15.59c5.27,2.74,13.17,4.24,21,4.24,8.7,0,17.3-1.5,23.72-7,6.88-5.95,8.82-15.35,8.82-25.21V383.9c0-9.06.22-13.87.46-17.42H522Zm-2.64,24.75a17.37,17.37,0,0,1-.34,4.24,7.23,7.23,0,0,1-7.22,5.62c-5.73,0-9.17-5.39-9.17-12.72,0-8.94,4.24-13.75,9.17-13.75,3.78,0,6.41,2.29,7.34,6.42a21,21,0,0,1,.22,2.63Z"/><path class="cls-1" d="M562.35,341.15c-6.42,0-10.54,4.13-10.54,9.86,0,5.38,4,9.74,10.42,9.74s10.66-4.36,10.66-9.74c-.11-5.73-4.12-9.86-10.54-9.86"/><rect class="cls-1" x="551.92" y="366.48" width="20.74" height="56.38"/><path class="cls-1" d="M621,365.22a20.5,20.5,0,0,0-17,8.48h-.34l-.92-7.22H584.91c.22,5.27.45,11.69.45,19.25v37.12H606.1v-32a11.41,11.41,0,0,1,.57-4.12c.93-2.18,2.76-4.93,6.76-4.93,5.05,0,7.23,3.78,7.23,10.31v30.71H641.4V389.62c0-15.47-7.22-24.4-20.4-24.4"/><path class="cls-1" d="M675.85,350.44l-20.18,5.49v10.55h-7V381.6h7v19.83c0,8.59,1.84,14.09,5.28,17.53,3,3,8,5.15,14.09,5.15,5.27,0,9.85-.68,12.26-1.6v-15.7a15.57,15.57,0,0,1-4.93.46c-5,0-6.52-2.75-6.52-9.51V381.6h11.68V366.48H675.85Z"/><path class="cls-1" d="M755.91,365.22a19.51,19.51,0,0,0-15.25,7.22h-.23V341.5H719.69v81.35h20.74V389.62a10.88,10.88,0,0,1,.47-3.32,7,7,0,0,1,6.76-4.47c5.15,0,7.33,4,7.33,10.66v30.36h20.74V390.2c0-15.93-7.1-25-19.82-25"/><rect class="cls-1" x="788.29" y="366.48" width="20.74" height="56.38"/><path class="cls-1" d="M798.72,341.15c-6.42,0-10.54,4.13-10.54,9.86,0,5.38,4,9.74,10.42,9.74s10.66-4.36,10.66-9.74c-.11-5.73-4.12-9.86-10.54-9.86"/><path class="cls-1" d="M848.19,365.22c-20.74,0-29.22,16.95-29.22,30,0,17.87,11.24,28.87,31.06,28.87a58.16,58.16,0,0,0,21.08-3.55l-2.63-13.86a50,50,0,0,1-15.36,2.17c-7.33,0-13.75-2.52-14.43-7H873.4a36,36,0,0,0,.81-7.79c0-15.47-7.79-28.87-26-28.87m-9.74,22.68c.34-3.55,2.64-9.16,8.71-9.16,6.53,0,8,6,8,9.16Z"/><path class="cls-1" d="M901.91,376.67h-.46l-.81-10.19H883c.34,4.69.46,10.08.46,19v37.35h20.73V395a27.77,27.77,0,0,1,.24-3.55c1.15-4.59,5.27-7.11,11.34-7.11a22,22,0,0,1,5.27.58V365.56a15.55,15.55,0,0,0-4.12-.34c-4.94,0-12,2.86-15,11.45"/><path class="cls-1" d="M1053,158.84a251.5,251.5,0,0,0,15.22-26.12c.78-1.16,1.47-2.39,2.17-3.63,2.47-5,4.71-10,5.41-15.84a34.35,34.35,0,0,0-4.33,4.63,22.4,22.4,0,0,0,.15-2.32c-.46.55-.85,1.09-1.31,1.63a35,35,0,0,0,0-4.1,32.61,32.61,0,0,0-4.71,7.34c0-.77.07-1.46,0-2.32-.47.62-.93,1.32-1.32,1.94.08-1.63.15-3.17.08-4.87a45,45,0,0,0-6.57,11.9,129.63,129.63,0,0,1-11.28,15.53c-4.64,5.26-9.89,8.58-15.84,9.89,0,0-10.9.78-15.46-3.4a16.77,16.77,0,0,0-17.39-3.47q-11.36,5.2-11.36,21.09c0,9.74,3.25,15.85,9.74,18.24q-4.87,35.7-17.85,60t-28,24.35q-11.82,0-16.23-6.72c-3-4.41-4.48-13.14-4.48-26.12,0-13.84,2.55-29.84,7.5-48.07s11.59-33.85,19.7-46.68,16.62-19.24,25.58-19.24c5.1,0,8.81,1.7,11.13,5a12.82,12.82,0,0,1,1,1.78c.23.46.38.93.61,1.39s.31.85.47,1.39a31.85,31.85,0,0,1,1.15,4.87,16.9,16.9,0,0,1,17.47,3.48c4.33,4.09,14.68,3.48,15.3,3.48-4.48-30.68-21.25-46.14-50.38-46.14-25.74,0-46.83,8.11-63.29,24.5a142.58,142.58,0,0,0-35.71,58q-11,33.39-11,61.44,0,33.27,17.46,48.69t47.45,15.37a76.55,76.55,0,0,0,46.68-15.61c14.06-10.43,25.42-25.19,34.24-44.43s14-41.5,15.61-66.92a65.79,65.79,0,0,0,22.33-20"/><path class="cls-1" d="M551.81,304.22a15.92,15.92,0,0,0,15.6-12.62L592.34,174q4.86-16.62,12.93-27c5.44-6.87,11.67-10.33,18.7-10.33q14.61,0,14.59,20.71a112.53,112.53,0,0,1-2.29,19.6l-.16.85c-.11.59-.22,1.23-.37,1.87-1.07,5.11-2.19,10.27-3.31,15.44L609.37,304.22h42A15,15,0,0,0,666,292.51c7-31.37,25.8-115.33,26.89-120.73a138.66,138.66,0,0,0,2.82-26.15c0-15.44-4-26.89-12.2-34.5S664.49,99.78,650.7,99.78q-27.16,0-47.45,22.74l4.47-21.14H549.31l-43,202.84Z"/><path class="cls-1" d="M232.22,244.59q8.72-27.17,8.72-50.29,0-24.75-11.76-42.8T193.08,129q19.47-11,30-28.4T233.64,64.5a57.49,57.49,0,0,0-9.53-32q-9.54-14.6-29-23.53T147.24,0A174.13,174.13,0,0,0,75.45,15.21Q41.37,30.42,20.68,55.16T0,107.49a49.71,49.71,0,0,0,2.17,15.32c.47,2,1,4,1.64,5.9,1.87,5.19,4.1,10.26,7.86,14.8a37.16,37.16,0,0,0-.52-7.29c0,.05.12.09.18.14A45.08,45.08,0,0,0,17.82,150a37.54,37.54,0,0,0-.18-8.23,33,33,0,0,0,4.61,5.76c0-1-.12-1.94-.22-2.89a38.55,38.55,0,0,0,4.65,8.51,39,39,0,0,0-.31-9.13,36,36,0,0,0,4,5.45,36.46,36.46,0,0,0-.56-5.7,41.32,41.32,0,0,0,6.6,10.14,37.46,37.46,0,0,0-.5-5.36,36.63,36.63,0,0,0,4.24,5.81,38.22,38.22,0,0,0-1-8.11,36.65,36.65,0,0,0,7.75,8.59c-.75-5.54-2.91-10.27-5.41-14.82l-.09-.14c-.26-.56-.52-1.11-.84-1.77q-2.84-5.88-2.84-20.89,0-31.64,14.81-53.95A93.25,93.25,0,0,1,90.86,29.82a111.44,111.44,0,0,1,48.27-11.16q27.17,0,40.36,12.57t13.18,31.24q0,15.42-8.11,30.62a74.46,74.46,0,0,1-21.5,25.15q-13.38,9.95-28.8,9.94h-2.43l19.06-90.05-60,8.11-55.17,258H78.55A19.24,19.24,0,0,0,97.36,289l30-140.14A120.75,120.75,0,0,1,146,147.65q38.52,0,38.53,51.51,0,27.6-9.94,50.3T144.4,272.18a29.14,29.14,0,0,1-13.59-3.25q-6.28-3.24-13.58-11.36-5.28,13-5.28,23.53,0,16.63,12,23.32t28.19,6.7q31.23,0,51.31-19.68a112.75,112.75,0,0,0,28.8-46.85"/><path class="cls-1" d="M432.9,281.21l-4.79,23h43.61A16,16,0,0,0,487,292.87l.82-3.73.57-2.6,0-.12,5-23.57-4.21,19.61L493.5,262a2.72,2.72,0,0,0,.21-.42L517.78,149.5l10.33-48.12H469.7l-4.47,21.52v-2.83c0-6.23-2.72-11.23-8.1-15s-13.68-5.7-24.76-5.7q-32.83,0-56.61,22.9t-35.68,56q-12,33.06-12,63.05c0,22.47,5.17,38.92,15.44,49.47s23.12,15.87,38.51,15.87q19.89,0,34.29-10.39a103.32,103.32,0,0,0,16.56-15.07m-24.44-13.9A20,20,0,0,1,394,261.62c-3.94-3.79-5.86-12.47-5.86-26s2.4-29.13,7.3-46.81,11.6-32.86,20.28-45.42,18.38-18.91,29.19-18.91c5.69,0,9.85,1.71,12.56,5.11a16.3,16.3,0,0,1,4.05,10.34l-19.44,91.64c-2.44,11.13-7,19.81-13.58,26.2s-13.36,9.53-20.07,9.53"/><polygon class="cls-1" points="493.71 261.62 493.71 261.62 493.45 262.85 493.71 261.62"/><path class="cls-1" d="M284.6,304.22a15.85,15.85,0,0,0,15.54-12.68l3.95-18.69,3-14.59c.05-.05.11-.16.16-.21L358.56,20.28l-60,8.09-43.4,203.27c-.43,2.12-.8,4.2-1.12,6.17l-14.11,66.41Z"/><path class="cls-1" d="M799.48,239.3c-.48,2.13-.85,4.21-1.17,6.18L790.22,286l-3.68,18.27h45a15.91,15.91,0,0,0,15.6-12.68l6.66-31.9.47-2.28,1.92-9.06.27-1.33L860,230l2.39-11a42.61,42.61,0,0,0,.86-4.68l.31-1.44h-.1a74.16,74.16,0,0,0,.53-9.27q0-20.68-11.34-34.08T819.4,156.18a52.48,52.48,0,0,0-13.42,1.6l81.15-56.4H847l-78.33,61.67L799.11,20.28,739,28.37,680.25,304.22h45.48a16,16,0,0,0,15.6-12.62l18.43-87.55a95.24,95.24,0,0,1,16.4-11.39A30.13,30.13,0,0,1,789.74,189c9.74,0,14.64,6.5,14.64,19.44a65.94,65.94,0,0,1-1.65,15Z"/><path class="cls-1" d="M1059.55,288.91c-.18-.72-.38-1.47-.57-2.13a5.67,5.67,0,0,0-1.74-3,5.21,5.21,0,0,0,.61-8.48c-1.34-1-3.24-1.44-6.18-1.44a38.5,38.5,0,0,0-5.7.37l-.43.06V292.4h5.62v-6.52h.25c1.13,0,1.63.19,2.07,2.11a21.13,21.13,0,0,0,1.25,4.13l.13.28h5.87l-.36-.72a24.43,24.43,0,0,1-.82-2.77m-5.42-9c0,1.05-.82,1.64-2.26,1.64h-.71v-3.15c.36,0,.85,0,1.08,0,1.25,0,1.89.51,1.89,1.53"/><path class="cls-1" d="M1052.33,264.29a20.22,20.22,0,1,0,20.21,20.21,20.23,20.23,0,0,0-20.21-20.21m14.93,20.21a14.93,14.93,0,1,1-14.93-14.93,14.94,14.94,0,0,1,14.93,14.93"/></svg>