<svg id="Laag_1" data-name="Laag 1" xmlns="http://www.w3.org/2000/svg" viewBox="0 0 1073.97 410.06"><defs><style>.cls-1{fill:#fff;}</style></defs><title>Blanko wit logo</title><path class="cls-1" d="M691.73,171.48a138.09,138.09,0,0,0,2.82-26.1c0-15.41-4-26.84-12.17-34.44s-19-11.33-32.8-11.33q-27.12,0-47.37,22.7l4.47-21.1H548.36l-42.9,202.48h45.4a15.89,15.89,0,0,0,15.58-12.6l24.88-117.37q4.86-16.59,12.91-26.95c5.42-6.86,11.65-10.32,18.66-10.32q14.6,0,14.57,20.68a112,112,0,0,1-2.29,19.56l-.16.85c-.11.59-.21,1.23-.37,1.87-1.06,5.1-2.18,10.26-3.3,15.41l-23,108.87h42A15,15,0,0,0,664.9,292C671.91,260.69,690.65,176.88,691.73,171.48Z"/><path class="cls-1" d="M73.81,331.18l-8.3,56.29-8.24-56.29h-11l10.63,69H73.11l10.64-69Z"/><path class="cls-1" d="M104.27,330.38c-10.64,0-16.43,6.32-16.43,17.38v35.88c0,11,5.79,17.33,16.43,17.33s16.48-6.32,16.48-17.33V347.76C120.75,336.7,115,330.38,104.27,330.38Zm5.63,53.95c0,4.89-2.18,6.76-5.63,6.76s-5.59-1.87-5.59-6.76V347.07c0-4.94,2.18-6.8,5.59-6.8s5.63,1.86,5.63,6.8Z"/><path class="cls-1" d="M143.34,330.38c-10.63,0-16.48,6.32-16.48,17.38v35.88c0,11,5.85,17.33,16.48,17.33s16.48-6.32,16.48-17.33V347.76C159.82,336.7,154,330.38,143.34,330.38ZM149,384.33c0,4.89-2.18,6.76-5.63,6.76s-5.64-1.87-5.64-6.76V347.07c0-4.94,2.18-6.8,5.64-6.8s5.63,1.86,5.63,6.8Z"/><path class="cls-1" d="M199.31,391.78V381.14c0-7.17-1.75-12.38-7.17-14.67,4.84-2.28,7.12-6.91,7.12-14v-5.42c0-10.69-4.84-15.89-16.11-15.89H166.78v69h10.84V372.11h3.78c4.94,0,7.07,2.34,7.07,8.77v10.84c0,5.59.43,6.7,1,8.46h11.06C199.42,397.62,199.31,395.18,199.31,391.78Zm-10.89-36.84c0,5.53-2.5,7.28-6.54,7.28h-4.26V341h5.27c3.83,0,5.53,2.18,5.53,7.12Z"/><path class="cls-1" d="M231.21,347.07c0-4.94,2-6.8,5.42-6.8s5.43,1.86,5.43,6.8v2.82h10.2v-2.13c0-11.06-5.42-17.38-15.95-17.38s-15.94,6.32-15.94,17.38c0,19.67,21.15,22.38,21.15,36.57,0,4.89-2.12,6.7-5.58,6.7s-5.63-1.81-5.63-6.7v-4.94H220.05v4.25c0,11,5.53,17.33,16.16,17.33s16.16-6.32,16.16-17.33C252.37,363.92,231.21,361.26,231.21,347.07Z"/><path class="cls-1" d="M255.45,331.18V341h11.32v59.17h10.85V341h11.32v-9.83Z"/><path class="cls-1" d="M314,331.18H298.14l-11.06,69h10l1.86-12.5h13.29l1.86,12.5h11Zm-13.71,47.1,5.21-34.88,5.21,34.88Z"/><path class="cls-1" d="M362.62,391.78V381.14c0-7.17-1.75-12.38-7.18-14.67,4.79-2.28,7.08-6.91,7.08-14v-5.42c0-10.69-4.84-15.89-16.06-15.89H330.09v69h10.84V372.11h3.72c5,0,7.13,2.34,7.13,8.77v10.84c0,5.59.37,6.7,1,8.46h11C362.73,397.62,362.62,395.18,362.62,391.78Zm-10.95-36.84c0,5.53-2.44,7.28-6.49,7.28h-4.25V341h5.21c3.88,0,5.53,2.18,5.53,7.12Z"/><path class="cls-1" d="M366.55,331.18V341h11.38v59.17h10.85V341H400.1v-9.83Z"/><path class="cls-1" d="M434.39,341v-9.83H404.83v69h29.56v-9.84H415.68v-20.2h14.88v-9.89H415.68V341Z"/><path class="cls-1" d="M473.67,391.78V381.14c0-7.17-1.81-12.38-7.23-14.67,4.84-2.28,7.12-6.91,7.12-14v-5.42c0-10.69-4.83-15.89-16.1-15.89H441.14v69H452V372.11h3.72c4.95,0,7.13,2.34,7.13,8.77v10.84c0,5.59.37,6.7.95,8.46h11.06C473.73,397.62,473.67,395.18,473.67,391.78Zm-10.95-36.84c0,5.53-2.5,7.28-6.54,7.28H452V341h5.21c3.83,0,5.53,2.18,5.53,7.12Z"/><path class="cls-1" d="M490.21,347.07c0-4.94,2-6.8,5.42-6.8s5.42,1.86,5.42,6.8v2.82h10.26v-2.13c0-11.06-5.42-17.38-15.95-17.38s-16,6.32-16,17.38c0,19.67,21.21,22.38,21.21,36.57,0,4.89-2.18,6.7-5.63,6.7s-5.64-1.81-5.64-6.7v-4.94H479.09v4.25c0,11,5.48,17.33,16.16,17.33s16.16-6.32,16.16-17.33C511.41,363.92,490.21,361.26,490.21,347.07Z"/><path class="cls-1" d="M517.16,389.76v10.42h4.09l-2.82,9.88h4.42l4.73-10.95v-9.35Z"/><path class="cls-1" d="M567.92,331.18H550.75v69h17.17c10.85,0,16.16-6,16.16-17.07V348.24C584.08,337.18,578.77,331.18,567.92,331.18Zm5.32,52.46c0,4.89-2.07,6.7-5.53,6.7H561.6V341h6.11c3.46,0,5.53,1.81,5.53,6.75Z"/><path class="cls-1" d="M606.57,330.38c-10.63,0-16.48,6.32-16.48,17.38v35.88c0,11,5.85,17.33,16.48,17.33s16.48-6.32,16.48-17.33V347.76C623.05,336.7,617.2,330.38,606.57,330.38Zm5.63,53.95c0,4.89-2.17,6.76-5.63,6.76s-5.63-1.87-5.63-6.76V347.07c0-4.94,2.17-6.8,5.63-6.8s5.63,1.86,5.63,6.8Z"/><path class="cls-1" d="M645.59,330.38c-10.63,0-16.42,6.32-16.42,17.38v35.88c0,11,5.79,17.33,16.42,17.33s16.48-6.32,16.48-17.33V347.76C662.07,336.7,656.27,330.38,645.59,330.38Zm5.64,53.95c0,4.89-2.18,6.76-5.64,6.76s-5.58-1.87-5.58-6.76V347.07c0-4.94,2.13-6.8,5.58-6.8s5.64,1.86,5.64,6.8Z"/><path class="cls-1" d="M701.62,391.78V381.14c0-7.17-1.81-12.38-7.18-14.67,4.79-2.28,7.07-6.91,7.07-14v-5.42c0-10.69-4.83-15.89-16-15.89H669.09v69h10.84V372.11h3.72c5,0,7.13,2.34,7.13,8.77v10.84c0,5.59.37,6.7,1,8.46h11.06C701.73,397.62,701.62,395.18,701.62,391.78Zm-11-36.84c0,5.53-2.45,7.28-6.49,7.28h-4.25V341h5.21c3.83,0,5.53,2.18,5.53,7.12Z"/><path class="cls-1" d="M733.46,347.07c0-4.94,2-6.8,5.42-6.8s5.43,1.86,5.43,6.8v2.82h10.26v-2.13c0-11.06-5.42-17.38-16-17.38s-16,6.32-16,17.38c0,19.67,21.21,22.38,21.21,36.57,0,4.89-2.18,6.7-5.64,6.7s-5.63-1.81-5.63-6.7v-4.94H722.3v4.25c0,11,5.53,17.33,16.21,17.33s16.16-6.32,16.16-17.33C754.67,363.92,733.46,361.26,733.46,347.07Z"/><path class="cls-1" d="M757.7,331.18V341h11.38v59.17h10.84V341h11.33v-9.83Z"/><path class="cls-1" d="M816.29,331.18H800.44l-11.05,69h9.94l1.86-12.5h13.34l1.86,12.5h11Zm-13.72,47.1,5.26-34.88L813,378.28Z"/><path class="cls-1" d="M864.87,391.78V381.14c0-7.17-1.75-12.38-7.17-14.67,4.84-2.28,7.12-6.91,7.12-14v-5.42c0-10.69-4.84-15.89-16.11-15.89H832.39v69h10.85V372.11H847c4.94,0,7.12,2.34,7.12,8.77v10.84c0,5.59.37,6.7,1,8.46H866.1C865,397.62,864.87,395.18,864.87,391.78ZM854,354.94c0,5.53-2.5,7.28-6.54,7.28h-4.2V341h5.21c3.82,0,5.53,2.18,5.53,7.12Z"/><path class="cls-1" d="M868.86,331.18V341h11.32v59.17H891V341h11.32v-9.83Z"/><path class="cls-1" d="M936.69,341v-9.83H907.08v69h29.61v-9.84H917.93v-20.2h14.88v-9.89H917.93V341Z"/><path class="cls-1" d="M975.92,391.78V381.14c0-7.17-1.75-12.38-7.17-14.67,4.78-2.28,7.07-6.91,7.07-14v-5.42c0-10.69-4.84-15.89-16.06-15.89H943.39v69h10.85V372.11H958c4.94,0,7.12,2.34,7.12,8.77v10.84c0,5.59.37,6.7,1,8.46h11C976,397.62,975.92,395.18,975.92,391.78ZM965,354.94c0,5.53-2.44,7.28-6.48,7.28h-4.25V341h5.21c3.88,0,5.52,2.18,5.52,7.12Z"/><path class="cls-1" d="M992.51,347.07c0-4.94,2-6.8,5.42-6.8s5.42,1.86,5.42,6.8v2.82h10.21v-2.13c0-11.06-5.42-17.38-15.95-17.38s-16,6.32-16,17.38c0,19.67,21.16,22.38,21.16,36.57,0,4.89-2.12,6.7-5.58,6.7s-5.63-1.81-5.63-6.7v-4.94H981.35v4.25c0,11,5.53,17.33,16.16,17.33s16.16-6.32,16.16-17.33C1013.67,363.92,992.51,361.26,992.51,347.07Z"/><path class="cls-1" d="M228.78,151.24q-11.75-18-36-22.47,19.42-10.94,30-28.35t10.53-36a57.35,57.35,0,0,0-9.52-32q-9.51-14.58-28.95-23.49T147,0A173.87,173.87,0,0,0,75.32,15.18q-34,15.2-54.67,39.89T0,107.31A49.56,49.56,0,0,0,2.17,122.6c.47,2,1,4,1.64,5.89,1.86,5.18,4.08,10.24,7.84,14.78a37.06,37.06,0,0,0-.52-7.28,1.18,1.18,0,0,0,.18.13,44.87,44.87,0,0,0,6.48,13.64,37.53,37.53,0,0,0-.18-8.23,32.07,32.07,0,0,0,4.6,5.75c0-1-.12-1.93-.22-2.88a38.85,38.85,0,0,0,4.64,8.5,37.72,37.72,0,0,0-.31-9.11,37.77,37.77,0,0,0,4,5.43,35.28,35.28,0,0,0-.57-5.69,41.55,41.55,0,0,0,6.6,10.13,35.93,35.93,0,0,0-.51-5.35,36.65,36.65,0,0,0,4.24,5.79,38.11,38.11,0,0,0-1-8.09,37,37,0,0,0,7.74,8.58c-.75-5.54-2.91-10.26-5.4-14.8l-.09-.14c-.26-.56-.52-1.11-.84-1.77Q37.66,132,37.66,117q0-31.58,14.78-53.85A93.22,93.22,0,0,1,90.7,29.76a111.38,111.38,0,0,1,48.19-11.13q27.12,0,40.29,12.55t13.16,31.18q0,15.39-8.1,30.57A74.41,74.41,0,0,1,162.78,118Q149.42,128,134,128H131.6l19-89.89L90.7,46.16,35.63,303.7H78.41a19.2,19.2,0,0,0,18.78-15.19l30-139.9a121.68,121.68,0,0,1,18.62-1.21q38.47,0,38.47,51.42,0,27.54-9.92,50.21t-30.17,22.68a29.1,29.1,0,0,1-13.56-3.24q-6.28-3.24-13.57-11.34-5.26,13-5.26,23.49,0,16.61,11.95,23.28t28.13,6.68q31.18,0,51.23-19.64a112.7,112.7,0,0,0,28.75-46.77q8.7-27.12,8.71-50.21Q240.53,169.27,228.78,151.24Z"/><path class="cls-1" d="M487.57,285.93l5-23.53L488.4,282l4.25-20.38a3.27,3.27,0,0,0,.21-.42l-.26,1.23,24.29-113.16,10.31-48H468.89l-4.47,21.47v-2.81c0-6.22-2.71-11.22-8.08-15s-13.66-5.69-24.72-5.69q-32.78,0-56.5,22.86T339.5,178q-12,33-12,62.94,0,33.64,15.41,49.39c10.26,10.52,23.08,15.84,38.44,15.84q19.85,0,34.23-10.37a103.93,103.93,0,0,0,16.54-15l-4.79,23h43.54a16,16,0,0,0,15.25-11.32l0-.21,0,.21.82-3.73.57-2.6Zm-46.22-54.75c-2.44,11.11-7,19.78-13.56,26.16s-13.34,9.51-20,9.51a20,20,0,0,1-14.4-5.69c-3.94-3.77-5.85-12.44-5.85-25.94s2.39-29.08,7.28-46.72,11.59-32.8,20.26-45.35,18.34-18.87,29.13-18.87c5.69,0,9.83,1.7,12.54,5.1a16.23,16.23,0,0,1,4,10.31Z"/><path class="cls-1" d="M306.59,257.82l.16-.22L357.94,20.25,298,28.33,254.71,231.24c-.43,2.12-.8,4.2-1.12,6.16L239.5,303.69h44.61A15.82,15.82,0,0,0,299.63,291l3.93-18.66Z"/><path class="cls-1" d="M851.16,169.25Q839.84,155.93,818,155.91a52.78,52.78,0,0,0-13.4,1.59l81-56.29H845.52l-78.19,61.56,30.4-142.52-60,8.08L679.08,303.69h45.4a15.94,15.94,0,0,0,15.58-12.6l18.39-87.39a95.6,95.6,0,0,1,16.37-11.38,30.14,30.14,0,0,1,13.56-3.61q14.6,0,14.62,19.4a66.24,66.24,0,0,1-1.65,15l-3.24,15.79c-.48,2.13-.86,4.2-1.18,6.17l-8.07,40.4-3.67,18.23h44.87A15.88,15.88,0,0,0,845.63,291l6.64-31.84.48-2.29,1.92-9,.26-1.32,3.56-17,2.4-11a43.05,43.05,0,0,0,.85-4.68l.32-1.44H862a73.72,73.72,0,0,0,.53-9.25Q862.48,182.63,851.16,169.25Z"/><path class="cls-1" d="M1074,113a34.92,34.92,0,0,0-4.35,4.62c.06-.75.17-1.49.18-2.26-.48.53-.89,1.09-1.34,1.63a29.91,29.91,0,0,0,0-4.13,34.12,34.12,0,0,0-4.73,7.35c0-.76.07-1.51,0-2.29-.49.61-.9,1.25-1.34,1.88a36.58,36.58,0,0,0,.13-4.82,42.62,42.62,0,0,0-6.56,11.85,124.43,124.43,0,0,1-11.29,15.47q-6.9,7.9-15.8,9.92-3.63-54.66-51.42-54.66-38.47,0-63.17,24.5A143,143,0,0,0,878.7,180q-10.94,33.4-10.94,61.35,0,33.21,17.42,48.59t47.37,15.39a76.49,76.49,0,0,0,46.57-15.59q21-15.59,34.22-44.34t15.58-66.82a65,65,0,0,0,22.28-20,258.48,258.48,0,0,0,15.22-26c.75-1.2,1.45-2.41,2.12-3.64C1071.05,124,1073.23,118.87,1074,113Zm-79.46,71.62q-4.86,35.64-17.82,59.93t-27.94,24.29q-11.75,0-16.2-6.68t-4.45-26.12q0-20.64,7.49-48t19.64-46.57q12.15-19.23,25.51-19.23c5.12,0,8.84,1.69,11.13,5.06s3.71,9.39,4.26,18q-11.34,5.26-11.34,21.06Q984.79,181,994.51,184.65Z"/></svg>