<svg id="Layer_1" data-name="Layer 1" xmlns="http://www.w3.org/2000/svg" viewBox="0 0 83 83.04"><defs><style>.cls-1{fill:#21282b;}.cls-2{fill:#fffbf6;}</style></defs><title>icon-giving</title><ellipse class="cls-1" cx="41.5" cy="41.52" rx="41.5" ry="41.52"/><path class="cls-2" d="M8.44,36.8l4.08-.07c2.19,0,1.26-.24,6.27,2.84,1.09.68,3.95,3,6.36,3.31,3.8.48,8.91,1.33,10.68.67,1-.38.91-3,.06-3.68s-3.2-1.12-5.3-1.12a9.89,9.89,0,0,1-3.71-1.5c-2.13-1.5-2.7-7.57-2.7-7.57l.49-3c2.07-.08,5.43-.68,7.24.37l8.66,5.55c.24,2.93,3.8,5.2,4.72,5.48a1,1,0,0,0,1.19-1.52c-.67-.92-1.9-5.38-1.9-5.38a48.65,48.65,0,0,1-4.73-4.88,12.82,12.82,0,0,0-2.74-2.67c-2.92-2.12-14.37-3.85-14.37-3.85-2.13,1-9.55,6.07-9.55,6.07l-4.75.08Z"/><path class="cls-2" d="M73.57,45.57l-4.08.08c-2.19,0-1.26.24-6.27-2.85-1.1-.68-4-3-6.37-3.31-3.79-.47-8.9-1.33-10.67-.66-1,.37-.91,3-.06,3.67s3.2,1.12,5.29,1.12a10,10,0,0,1,3.72,1.5c2.13,1.5,2.7,7.58,2.7,7.58l-.49,3c-2.07.08-5.43.68-7.24-.37l-8.66-5.55c-.25-2.92-3.8-5.2-4.72-5.48a1,1,0,0,0-1.19,1.52c.66.93,1.9,5.39,1.9,5.39a48.26,48.26,0,0,1,4.73,4.87,12.82,12.82,0,0,0,2.74,2.67c2.92,2.13,14.36,3.85,14.36,3.85,2.13-1,9.56-6.07,9.56-6.07l4.75-.08Z"/></svg>